<?xml version="1.0" encoding="UTF-8"?>
<svg id="mySvg" version="1.1" xmlns="http://www.w3.org/2000/svg" viewBox="0 0 500 500" width="500" height="500">

    <path d="M0 0 C3.28931514 1.72689045 3.8140267 2.4420801 5 6 C5.16250629 7.38374588 5.28211679 8.77280084 5.37304688 10.16308594 C5.42983612 11.00486389 5.48662537 11.84664185 5.5451355 12.71392822 C5.60242828 13.62817566 5.65972107 14.5424231 5.71875 15.484375 C5.7812796 16.44003357 5.8438092 17.39569214 5.90823364 18.38031006 C6.11040987 21.50324731 6.30569225 24.62656394 6.5 27.75 C6.56725281 28.81033447 6.63450562 29.87066895 6.70379639 30.96313477 C7.6111202 45.31845848 8.36800664 59.66145464 8.70898438 74.04199219 C8.90758539 82.38565697 9.39043051 90.67742178 10 99 C11.02770508 98.63656494 12.05541016 98.27312988 13.11425781 97.89868164 C32.18954657 91.21618221 51.97986116 88.82807029 70.94921875 97.3203125 C82.50132108 103.79515086 88.89587837 112.8373348 92.8125 125.3125 C96.40060914 140.01549897 92.92878985 154.89826498 85.890625 168.0859375 C74.87346269 185.0669356 58.14080473 195.25211202 38.86328125 200.2734375 C16.76524811 204.42938711 -6.6804633 202.45692942 -28.5 197.6875 C-29.41539551 197.49905518 -30.33079102 197.31061035 -31.27392578 197.11645508 C-37.54465771 195.64081353 -37.54465771 195.64081353 -39.70703125 192.59765625 C-40.0466561 189.58631595 -39.67642943 188.35936127 -38.1875 185.75 C-37.80980469 185.06421875 -37.43210937 184.3784375 -37.04296875 183.671875 C-36 182 -36 182 -35 181 C-29.421289 180.65358586 -24.65249104 181.61225869 -19.3125 183 C-15.132302 184.069437 -11.35517142 185 -7 185 C-6.58444993 124.1138426 -6.58444993 124.1138426 -7.9375 63.25 C-7.98106628 62.11360077 -8.02463257 60.97720154 -8.06951904 59.80636597 C-8.19344854 56.66738581 -8.32591061 53.52897406 -8.46484375 50.390625 C-8.50344009 49.49587967 -8.54203644 48.60113434 -8.58180237 47.67927551 C-8.77677827 43.69343741 -9.0503638 39.89395568 -10 36 C-10.25579834 36.49177734 -10.51159668 36.98355469 -10.77514648 37.49023438 C-13.82346232 43.34104507 -16.90449681 49.1740347 -20 55 C-20.36270996 55.68755371 -20.72541992 56.37510742 -21.09912109 57.08349609 C-34.98675289 83.26178311 -52.98789002 107.47964508 -72.703125 129.54003906 C-74.35290194 131.39728043 -75.9548034 133.29381891 -77.5625 135.1875 C-79.6396786 137.58100022 -81.82080106 139.82537567 -84.0859375 142.0390625 C-84.63693115 142.57893799 -85.1879248 143.11881348 -85.75561523 143.67504883 C-86.85984365 144.75010471 -87.9711609 145.81793655 -89.09008789 146.87768555 C-90.44926542 148.19654941 -91.73133845 149.59384804 -93 151 C-93 151.99 -93 152.98 -93 154 C-92.15526123 154.259021 -91.31052246 154.51804199 -90.44018555 154.78491211 C-86.78927427 156.07442921 -83.39674839 157.6839586 -79.95703125 159.44140625 C-79.30675461 159.76914536 -78.65647797 160.09688446 -77.98649597 160.43455505 C-75.92653709 161.47337741 -73.86935731 162.51755185 -71.8125 163.5625 C-69.7445794 164.61029456 -67.67607455 165.65689207 -65.60636902 166.70115662 C-64.32311068 167.34888912 -63.04092764 167.99875747 -61.75996399 168.65101624 C-59.1922721 169.94929292 -56.735185 171.08827167 -54 172 C-53.75378906 171.17628906 -53.50757813 170.35257813 -53.25390625 169.50390625 C-47.06417605 152.20737047 -35.57778718 137.01338679 -23.37304688 123.51953125 C-22.04131756 122.04572555 -20.74648103 120.53884292 -19.453125 119.03125 C-17 117 -17 117 -14.1875 117.1875 C-13.465625 117.455625 -12.74375 117.72375 -12 118 C-10.301849 132.69844031 -10.301849 132.69844031 -15.11962891 139.0625 C-16.92596305 141.20413366 -18.76860154 143.30961801 -20.63623047 145.39794922 C-22.84828695 147.99650179 -24.67839059 150.80711086 -26.5 153.6875 C-26.8619043 154.25944092 -27.22380859 154.83138184 -27.59667969 155.4206543 C-48.1204199 188.36784587 -62.87646949 230.7453791 -55 270 C-53.03298858 277.17159189 -49.65453093 284.25879404 -43.0234375 288.1640625 C-39.85767856 289.4719243 -37.38794107 289.35047666 -34 289 C-25.78611621 285.06418068 -20.58952188 276.48049555 -17.125 268.33203125 C-11.78641405 252.52017772 -9.97932622 235.27135072 -9.42895508 218.66943359 C-9.06697559 210.06697559 -9.06697559 210.06697559 -6 207 C-4.1849043 207.03787519 -2.37113915 207.15492026 -0.5625 207.3125 C0.42621094 207.39113281 1.41492188 207.46976563 2.43359375 207.55078125 C5 208 5 208 7 210 C9.64909749 236.55258183 4.35208622 270.96044342 -12.12890625 292.82421875 C-18.93745478 300.1930414 -27.52323468 304.54057238 -37.59375 305.06640625 C-47.41078969 304.79548145 -54.43360507 300.91905431 -61.1875 293.9375 C-74.33615691 278.28802011 -74.37282043 255.60374646 -72.77294922 236.25390625 C-71.3037702 222.13735014 -69.23153465 206.16099442 -63.34375 193.1484375 C-61.73830556 189.95737778 -61.73830556 189.95737778 -62 186 C-62.7892688 185.63986816 -62.7892688 185.63986816 -63.59448242 185.27246094 C-73.75701246 180.60654174 -83.67577638 175.74356217 -93.3125 170.0625 C-119.58010613 154.72864326 -152.20337521 138.30394075 -183.5 145.125 C-188.39250129 146.51996937 -192.20758738 148.74417292 -196.2578125 151.79296875 C-198 153 -198 153 -200 153 C-200.68774405 154.32258472 -201.34711373 155.65986503 -202 157 C-202.53625 158.093125 -203.0725 159.18625 -203.625 160.3125 C-205.67338736 165.80590248 -205.73913456 169.84594075 -203.375 175.1875 C-200.6575968 180.11696476 -197.0820658 182.15017723 -191.9375 184.25 C-175.01759225 188.38680564 -158.4671615 181.16405354 -144 173 C-140.31283545 170.6285163 -136.73213139 168.11992584 -133.25097656 165.45507812 C-130.31694575 163.26979572 -128.53629034 162.0792777 -124.85546875 161.53515625 C-121.77391699 162.03680421 -119.78595172 162.88730199 -117.125 164.5 C-116.34382813 164.9640625 -115.56265625 165.428125 -114.7578125 165.90625 C-113.88769531 166.44765625 -113.88769531 166.44765625 -113 167 C-114.36106951 171.94375571 -117.22790969 174.06679632 -121.3125 176.8125 C-121.93769531 177.24336914 -122.56289062 177.67423828 -123.20703125 178.11816406 C-125.12700706 179.42943787 -127.06049951 180.71782185 -129 182 C-130.09699219 182.73089844 -131.19398438 183.46179688 -132.32421875 184.21484375 C-150.61314739 195.93505509 -171.90511427 203.52840838 -193.74609375 199.26953125 C-203.15373796 196.60493838 -211.66553427 192.50855593 -217 184 C-221.29423415 174.66611748 -221.36501207 163.95489602 -218.03125 154.30859375 C-213.08090337 143.22656778 -202.83232291 136.61913435 -192 132 C-169.61129409 124.0040336 -141.62362081 129.61705732 -120.57128906 139.30615234 C-119.01289609 140.04576654 -117.46341638 140.80454196 -115.92480469 141.58447266 C-111.83568645 143.61340718 -111.83568645 143.61340718 -107.37890625 143.625 C-104.02277974 141.33247352 -101.44873918 138.58511991 -98.75 135.5625 C-98.17789795 134.93359863 -97.6057959 134.30469727 -97.01635742 133.65673828 C-92.91955196 129.11879148 -88.98518288 124.46433298 -85.1640625 119.69140625 C-82.88496351 116.85693115 -80.53965683 114.08655163 -78.1875 111.3125 C-52.1454734 79.96635466 -28.51857546 43.47897203 -13.10375977 5.70703125 C-10.36066858 -0.92758496 -6.70905415 -0.68045567 0 0 Z M10 117 C9.87598086 119.17731389 9.8219849 121.35863454 9.79467773 123.53930664 C9.78477814 124.22220261 9.77487854 124.90509857 9.76467896 125.60868835 C9.73298065 127.87580853 9.70827387 130.14294969 9.68359375 132.41015625 C9.6630314 133.97815001 9.64203512 135.54613813 9.62062073 137.11412048 C9.56532576 141.24870248 9.51594938 145.38333511 9.46777344 149.51800537 C9.41761247 153.73405483 9.36189826 157.95003043 9.30664062 162.16601562 C9.1989683 170.44394803 9.09754365 178.72194208 9 187 C11.24674023 187.00708836 13.4934869 187.01215262 15.74023438 187.01635742 C16.99139038 187.01939377 18.24254639 187.02243011 19.53161621 187.02555847 C34.77002536 186.91326685 49.60727998 183.53773165 61 173 C61.75925781 172.35417969 62.51851563 171.70835937 63.30078125 171.04296875 C71.92853987 163.22723447 78.27931318 151.78322949 79 140 C79.27572603 130.83210951 77.77757233 123.30350373 72 116 C62.48292779 107.31254099 52.56922059 106.36621325 40.23828125 106.61328125 C30.94001573 107.08509285 16.77593896 110.22406104 10 117 Z " fill="#FAF9F8" transform="translate(301,94)"/>

</svg>